0
SECTION
2
HEADER
9
$INSUNITS
70
4
0
ENDSEC
0
SECTION
2
TABLES
0
TABLE
2
LTYPE
0
LTYPE
72
65
70
64
2
CONTINUOUS
3
______
73
0
40
0
0
ENDTAB
0
TABLE
2
LAYER
0
ENDTAB
0
ENDSEC
0
SECTION
2
ENTITIES
0
LINE
8
0
10
41
20
-91
11
59
21
-91
0
LINE
8
0
10
59
20
-91
11
59
21
-109
0
LINE
8
0
10
59
20
-109
11
41
21
-109
0
LINE
8
0
10
41
20
-109
11
41
21
-91
0
LINE
8
0
10
41
20
-72
11
59
21
-72
0
LINE
8
0
10
59
20
-72
11
59
21
-90
0
LINE
8
0
10
59
20
-90
11
41
21
-90
0
LINE
8
0
10
41
20
-90
11
41
21
-72
0
LINE
8
0
10
41
20
-53
11
59
21
-53
0
LINE
8
0
10
59
20
-53
11
59
21
-71
0
LINE
8
0
10
59
20
-71
11
41
21
-71
0
LINE
8
0
10
41
20
-71
11
41
21
-53
0
LINE
8
0
10
41
20
-34
11
59
21
-34
0
LINE
8
0
10
59
20
-34
11
59
21
-52
0
LINE
8
0
10
59
20
-52
11
41
21
-52
0
LINE
8
0
10
41
20
-52
11
41
21
-34
0
LINE
8
0
10
41
20
-15
11
59
21
-15
0
LINE
8
0
10
59
20
-15
11
59
21
-33
0
LINE
8
0
10
59
20
-33
11
41
21
-33
0
LINE
8
0
10
41
20
-33
11
41
21
-15
0
LINE
8
0
10
60
20
-88.5
11
78
21
-88.5
0
LINE
8
0
10
78
20
-88.5
11
78
21
-106.5
0
LINE
8
0
10
78
20
-106.5
11
60
21
-106.5
0
LINE
8
0
10
60
20
-106.5
11
60
21
-88.5
0
LINE
8
0
10
60
20
-69.5
11
78
21
-69.5
0
LINE
8
0
10
78
20
-69.5
11
78
21
-87.5
0
LINE
8
0
10
78
20
-87.5
11
60
21
-87.5
0
LINE
8
0
10
60
20
-87.5
11
60
21
-69.5
0
LINE
8
0
10
60
20
-50.5
11
78
21
-50.5
0
LINE
8
0
10
78
20
-50.5
11
78
21
-68.5
0
LINE
8
0
10
78
20
-68.5
11
60
21
-68.5
0
LINE
8
0
10
60
20
-68.5
11
60
21
-50.5
0
LINE
8
0
10
60
20
-31.5
11
78
21
-31.5
0
LINE
8
0
10
78
20
-31.5
11
78
21
-49.5
0
LINE
8
0
10
78
20
-49.5
11
60
21
-49.5
0
LINE
8
0
10
60
20
-49.5
11
60
21
-31.5
0
LINE
8
0
10
60
20
-12.5
11
78
21
-12.5
0
LINE
8
0
10
78
20
-12.5
11
78
21
-30.5
0
LINE
8
0
10
78
20
-30.5
11
60
21
-30.5
0
LINE
8
0
10
60
20
-30.5
11
60
21
-12.5
0
LINE
8
0
10
79
20
-86
11
97
21
-86
0
LINE
8
0
10
97
20
-86
11
97
21
-104
0
LINE
8
0
10
97
20
-104
11
79
21
-104
0
LINE
8
0
10
79
20
-104
11
79
21
-86
0
LINE
8
0
10
79
20
-67
11
97
21
-67
0
LINE
8
0
10
97
20
-67
11
97
21
-85
0
LINE
8
0
10
97
20
-85
11
79
21
-85
0
LINE
8
0
10
79
20
-85
11
79
21
-67
0
LINE
8
0
10
79
20
-48
11
97
21
-48
0
LINE
8
0
10
97
20
-48
11
97
21
-66
0
LINE
8
0
10
97
20
-66
11
79
21
-66
0
LINE
8
0
10
79
20
-66
11
79
21
-48
0
LINE
8
0
10
79
20
-29
11
97
21
-29
0
LINE
8
0
10
97
20
-29
11
97
21
-47
0
LINE
8
0
10
97
20
-47
11
79
21
-47
0
LINE
8
0
10
79
20
-47
11
79
21
-29
0
LINE
8
0
10
79
20
-10
11
97
21
-10
0
LINE
8
0
10
97
20
-10
11
97
21
-28
0
LINE
8
0
10
97
20
-28
11
79
21
-28
0
LINE
8
0
10
79
20
-28
11
79
21
-10
0
LINE
8
0
10
98
20
-86
11
116
21
-86
0
LINE
8
0
10
116
20
-86
11
116
21
-104
0
LINE
8
0
10
116
20
-104
11
98
21
-104
0
LINE
8
0
10
98
20
-104
11
98
21
-86
0
LINE
8
0
10
98
20
-67
11
116
21
-67
0
LINE
8
0
10
116
20
-67
11
116
21
-85
0
LINE
8
0
10
116
20
-85
11
98
21
-85
0
LINE
8
0
10
98
20
-85
11
98
21
-67
0
LINE
8
0
10
98
20
-48
11
116
21
-48
0
LINE
8
0
10
116
20
-48
11
116
21
-66
0
LINE
8
0
10
116
20
-66
11
98
21
-66
0
LINE
8
0
10
98
20
-66
11
98
21
-48
0
LINE
8
0
10
98
20
-29
11
116
21
-29
0
LINE
8
0
10
116
20
-29
11
116
21
-47
0
LINE
8
0
10
116
20
-47
11
98
21
-47
0
LINE
8
0
10
98
20
-47
11
98
21
-29
0
LINE
8
0
10
98
20
-10
11
116
21
-10
0
LINE
8
0
10
116
20
-10
11
116
21
-28
0
LINE
8
0
10
116
20
-28
11
98
21
-28
0
LINE
8
0
10
98
20
-28
11
98
21
-10
0
LINE
8
0
10
117
20
-88.5
11
135
21
-88.5
0
LINE
8
0
10
135
20
-88.5
11
135
21
-106.5
0
LINE
8
0
10
135
20
-106.5
11
117
21
-106.5
0
LINE
8
0
10
117
20
-106.5
11
117
21
-88.5
0
LINE
8
0
10
117
20
-69.5
11
135
21
-69.5
0
LINE
8
0
10
135
20
-69.5
11
135
21
-87.5
0
LINE
8
0
10
135
20
-87.5
11
117
21
-87.5
0
LINE
8
0
10
117
20
-87.5
11
117
21
-69.5
0
LINE
8
0
10
117
20
-50.5
11
135
21
-50.5
0
LINE
8
0
10
135
20
-50.5
11
135
21
-68.5
0
LINE
8
0
10
135
20
-68.5
11
117
21
-68.5
0
LINE
8
0
10
117
20
-68.5
11
117
21
-50.5
0
LINE
8
0
10
117
20
-31.5
11
135
21
-31.5
0
LINE
8
0
10
135
20
-31.5
11
135
21
-49.5
0
LINE
8
0
10
135
20
-49.5
11
117
21
-49.5
0
LINE
8
0
10
117
20
-49.5
11
117
21
-31.5
0
LINE
8
0
10
117
20
-12.5
11
135
21
-12.5
0
LINE
8
0
10
135
20
-12.5
11
135
21
-30.5
0
LINE
8
0
10
135
20
-30.5
11
117
21
-30.5
0
LINE
8
0
10
117
20
-30.5
11
117
21
-12.5
0
LINE
8
0
10
136
20
-91
11
154
21
-91
0
LINE
8
0
10
154
20
-91
11
154
21
-109
0
LINE
8
0
10
154
20
-109
11
136
21
-109
0
LINE
8
0
10
136
20
-109
11
136
21
-91
0
LINE
8
0
10
136
20
-72
11
154
21
-72
0
LINE
8
0
10
154
20
-72
11
154
21
-90
0
LINE
8
0
10
154
20
-90
11
136
21
-90
0
LINE
8
0
10
136
20
-90
11
136
21
-72
0
LINE
8
0
10
136
20
-53
11
154
21
-53
0
LINE
8
0
10
154
20
-53
11
154
21
-71
0
LINE
8
0
10
154
20
-71
11
136
21
-71
0
LINE
8
0
10
136
20
-71
11
136
21
-53
0
LINE
8
0
10
136
20
-34
11
154
21
-34
0
LINE
8
0
10
154
20
-34
11
154
21
-52
0
LINE
8
0
10
154
20
-52
11
136
21
-52
0
LINE
8
0
10
136
20
-52
11
136
21
-34
0
LINE
8
0
10
136
20
-15
11
154
21
-15
0
LINE
8
0
10
154
20
-15
11
154
21
-33
0
LINE
8
0
10
154
20
-33
11
136
21
-33
0
LINE
8
0
10
136
20
-33
11
136
21
-15
0
LINE
8
0
10
170.6467943
20
-121.0396656
11
186.9603344
21
-128.6467943
0
LINE
8
0
10
186.9603344
20
-128.6467943
11
179.3532057
21
-144.9603344
0
LINE
8
0
10
179.3532057
20
-144.9603344
11
163.0396656
21
-137.3532057
0
LINE
8
0
10
163.0396656
20
-137.3532057
11
170.6467943
21
-121.0396656
0
LINE
8
0
10
187.9119576
20
-129.0905435
11
204.2254977
21
-136.6976722
0
LINE
8
0
10
204.2254977
20
-136.6976722
11
196.618369
21
-153.0112123
0
LINE
8
0
10
196.618369
20
-153.0112123
11
180.3048289
21
-145.4040836
0
LINE
8
0
10
180.3048289
20
-145.4040836
11
187.9119576
21
-129.0905435
0
LINE
8
0
10
162.415247
20
-138.6922755
11
178.7287872
21
-146.2994042
0
LINE
8
0
10
178.7287872
20
-146.2994042
11
166.6524704
21
-172.1971493
0
LINE
8
0
10
166.6524704
20
-172.1971493
11
150.3389302
21
-164.5900206
0
LINE
8
0
10
150.3389302
20
-164.5900206
11
162.415247
21
-138.6922755
0
LINE
8
0
10
179.6804103
20
-146.7431534
11
195.9939505
21
-154.3502821
0
LINE
8
0
10
195.9939505
20
-154.3502821
11
183.9176337
21
-180.2480272
0
LINE
8
0
10
183.9176337
20
-180.2480272
11
167.6040935
21
-172.6408985
0
LINE
8
0
10
167.6040935
20
-172.6408985
11
179.6804103
21
-146.7431534
0
ENDSEC
0
EOF