0
SECTION
2
HEADER
9
$INSUNITS
70
4
0
ENDSEC
0
SECTION
2
TABLES
0
TABLE
2
LTYPE
0
LTYPE
72
65
70
64
2
CONTINUOUS
3
______
73
0
40
0
0
ENDTAB
0
TABLE
2
LAYER
0
ENDTAB
0
ENDSEC
0
SECTION
2
ENTITIES
0
LINE
8
0
10
42
20
-109.5
11
58
21
-109.5
0
LINE
8
0
10
60
20
-107.5
11
60
21
-107
0
LINE
8
0
10
40
20
-107.5
11
40
21
-16.5
0
LINE
8
0
10
59
20
-14.5
11
42
21
-14.5
0
LINE
8
0
10
60
20
-107
11
77
21
-107
0
LINE
8
0
10
79
20
-105
11
79
21
-104.5
0
LINE
8
0
10
78
20
-12
11
61
21
-12
0
LINE
8
0
10
59
20
-14
11
59
21
-14.5
0
LINE
8
0
10
79
20
-104.5
11
114
21
-104.5
0
LINE
8
0
10
80
20
-9.5
11
117
21
-9.5
0
LINE
8
0
10
78
20
-11.5
11
78
21
-12
0
LINE
8
0
10
117
20
-10
11
117
21
-9.5
0
LINE
8
0
10
116
20
-107
11
133
21
-107
0
LINE
8
0
10
116
20
-106.5
11
116
21
-107
0
LINE
8
0
10
136
20
-12.5
11
136
21
-12
0
LINE
8
0
10
136
20
-12
11
119
21
-12
0
LINE
8
0
10
135
20
-109.5
11
149.421055
21
-109.5
0
LINE
8
0
10
155
20
-83.6906447
11
155
21
-16.5
0
LINE
8
0
10
135
20
-109
11
135
21
-109.5
0
LINE
8
0
10
153
20
-14.5
11
138
21
-14.5
0
LINE
8
0
10
171.7644112
20
-121.00913
11
203.5304992
21
-135.8219
0
LINE
8
0
10
198.1586042
20
-152.074369
11
204.4978781
21
-138.4797521
0
LINE
8
0
10
153.2685228
20
-160.6736903
11
185.0346108
21
-175.4864603
0
LINE
8
0
10
158.6404178
20
-144.4212213
11
152.3011439
21
-158.0158382
0
LINE
8
0
10
187.6924629
20
-174.5190814
11
194.0317368
21
-160.9244645
0
ARC
8
0
10
58
20
-107.5
40
2
50
270
51
0
0
ARC
8
0
10
77
20
-105
40
2
50
270
51
0
0
ARC
8
0
10
114
20
-106.5
40
2
50
0
51
90
0
ARC
8
0
10
133
20
-109
40
2
50
0
51
90
0
ARC
8
0
10
153
20
-16.5
40
2
50
0
51
90
0
ARC
8
0
10
138
20
-12.5
40
2
50
180
51
270
0
ARC
8
0
10
119
20
-10
40
2
50
180
51
270
0
ARC
8
0
10
80
20
-11.5
40
2
50
90
51
180
0
ARC
8
0
10
61
20
-14
40
2
50
90
51
180
0
ARC
8
0
10
42
20
-16.5
40
2
50
90
51
180
0
ARC
8
0
10
42
20
-107.5
40
2
50
180
51
270
0
ARC
8
0
10
196.3459886
20
-151.2291324
40
2
50
308.8906752
51
334.9999983
0
ARC
8
0
10
202.6852626
20
-137.6345156
40
2
50
334.9999983
51
353.7774511
0
ARC
8
0
10
202.6852626
20
-137.6345156
40
2
50
395.1694049
51
64.9999983
0
ARC
8
0
10
170.9191747
20
-122.8217455
40
2
50
64.9999983
51
94.8305954
0
ARC
8
0
10
170.9191747
20
-122.8217455
40
2
50
94.9347878
51
97.8984964
0
ARC
8
0
10
185.8798473
20
-173.6738448
40
2
50
244.9999983
51
334.9999983
0
ARC
8
0
10
192.2191213
20
-160.079228
40
2
50
334.9999983
51
368.8275908
0
ARC
8
0
10
160.4530334
20
-145.2664579
40
2
50
143.1390405
51
154.9999983
0
ARC
8
0
10
154.1137594
20
-158.8610747
40
2
50
154.9999983
51
244.9999983
0
LINE
8
0
10
149.421055
20
-109.5
11
151.5019494
21
-140.8001037
0
LINE
8
0
10
151.5019494
20
-140.8001037
11
158.8528462
21
-144.0667075
0
LINE
8
0
10
194.1954305
20
-159.7723046
11
194.2763793
21
-159.8082767
0
LINE
8
0
10
194.2763793
20
-159.8082767
11
197.6016614
21
-152.7858231
0
LINE
8
0
10
204.6734794
20
-137.8512968
11
205.14049
21
-136.8650463
0
LINE
8
0
10
205.14049
20
-136.8650463
11
204.3201678
21
-136.4825238
0
LINE
8
0
10
170.7507548
20
-120.8288494
11
170.7461095
21
-120.8266833
0
LINE
8
0
10
170.7461095
20
-120.8266833
11
170.747131
21
-120.829159
0
LINE
8
0
10
170.6443376
20
-120.8407194
11
155
21
-83.6906447
0
ENDSEC
0
EOF