0
SECTION
2
HEADER
9
$INSUNITS
70
4
0
ENDSEC
0
SECTION
2
TABLES
0
TABLE
2
LTYPE
0
LTYPE
72
65
70
64
2
CONTINUOUS
3
______
73
0
40
0
0
ENDTAB
0
TABLE
2
LAYER
0
ENDTAB
0
ENDSEC
0
SECTION
2
ENTITIES
0
LINE
8
0
10
41
20
-91
11
59
21
-91
0
LINE
8
0
10
59
20
-91
11
59
21
-109
0
LINE
8
0
10
59
20
-109
11
41
21
-109
0
LINE
8
0
10
41
20
-109
11
41
21
-91
0
LINE
8
0
10
41
20
-72
11
59
21
-72
0
LINE
8
0
10
59
20
-72
11
59
21
-90
0
LINE
8
0
10
59
20
-90
11
41
21
-90
0
LINE
8
0
10
41
20
-90
11
41
21
-72
0
LINE
8
0
10
41
20
-53
11
59
21
-53
0
LINE
8
0
10
59
20
-53
11
59
21
-71
0
LINE
8
0
10
59
20
-71
11
41
21
-71
0
LINE
8
0
10
41
20
-71
11
41
21
-53
0
LINE
8
0
10
41
20
-34
11
59
21
-34
0
LINE
8
0
10
59
20
-34
11
59
21
-52
0
LINE
8
0
10
59
20
-52
11
41
21
-52
0
LINE
8
0
10
41
20
-52
11
41
21
-34
0
LINE
8
0
10
41
20
-15
11
59
21
-15
0
LINE
8
0
10
59
20
-15
11
59
21
-33
0
LINE
8
0
10
59
20
-33
11
41
21
-33
0
LINE
8
0
10
41
20
-33
11
41
21
-15
0
LINE
8
0
10
60
20
-88.5
11
78
21
-88.5
0
LINE
8
0
10
78
20
-88.5
11
78
21
-106.5
0
LINE
8
0
10
78
20
-106.5
11
60
21
-106.5
0
LINE
8
0
10
60
20
-106.5
11
60
21
-88.5
0
LINE
8
0
10
60
20
-69.5
11
78
21
-69.5
0
LINE
8
0
10
78
20
-69.5
11
78
21
-87.5
0
LINE
8
0
10
78
20
-87.5
11
60
21
-87.5
0
LINE
8
0
10
60
20
-87.5
11
60
21
-69.5
0
LINE
8
0
10
60
20
-50.5
11
78
21
-50.5
0
LINE
8
0
10
78
20
-50.5
11
78
21
-68.5
0
LINE
8
0
10
78
20
-68.5
11
60
21
-68.5
0
LINE
8
0
10
60
20
-68.5
11
60
21
-50.5
0
LINE
8
0
10
60
20
-31.5
11
78
21
-31.5
0
LINE
8
0
10
78
20
-31.5
11
78
21
-49.5
0
LINE
8
0
10
78
20
-49.5
11
60
21
-49.5
0
LINE
8
0
10
60
20
-49.5
11
60
21
-31.5
0
LINE
8
0
10
60
20
-12.5
11
78
21
-12.5
0
LINE
8
0
10
78
20
-12.5
11
78
21
-30.5
0
LINE
8
0
10
78
20
-30.5
11
60
21
-30.5
0
LINE
8
0
10
60
20
-30.5
11
60
21
-12.5
0
LINE
8
0
10
79
20
-86
11
97
21
-86
0
LINE
8
0
10
97
20
-86
11
97
21
-104
0
LINE
8
0
10
97
20
-104
11
79
21
-104
0
LINE
8
0
10
79
20
-104
11
79
21
-86
0
LINE
8
0
10
79
20
-67
11
97
21
-67
0
LINE
8
0
10
97
20
-67
11
97
21
-85
0
LINE
8
0
10
97
20
-85
11
79
21
-85
0
LINE
8
0
10
79
20
-85
11
79
21
-67
0
LINE
8
0
10
79
20
-48
11
97
21
-48
0
LINE
8
0
10
97
20
-48
11
97
21
-66
0
LINE
8
0
10
97
20
-66
11
79
21
-66
0
LINE
8
0
10
79
20
-66
11
79
21
-48
0
LINE
8
0
10
79
20
-29
11
97
21
-29
0
LINE
8
0
10
97
20
-29
11
97
21
-47
0
LINE
8
0
10
97
20
-47
11
79
21
-47
0
LINE
8
0
10
79
20
-47
11
79
21
-29
0
LINE
8
0
10
79
20
-10
11
97
21
-10
0
LINE
8
0
10
97
20
-10
11
97
21
-28
0
LINE
8
0
10
97
20
-28
11
79
21
-28
0
LINE
8
0
10
79
20
-28
11
79
21
-10
0
LINE
8
0
10
98
20
-86
11
116
21
-86
0
LINE
8
0
10
116
20
-86
11
116
21
-104
0
LINE
8
0
10
116
20
-104
11
98
21
-104
0
LINE
8
0
10
98
20
-104
11
98
21
-86
0
LINE
8
0
10
98
20
-67
11
116
21
-67
0
LINE
8
0
10
116
20
-67
11
116
21
-85
0
LINE
8
0
10
116
20
-85
11
98
21
-85
0
LINE
8
0
10
98
20
-85
11
98
21
-67
0
LINE
8
0
10
98
20
-48
11
116
21
-48
0
LINE
8
0
10
116
20
-48
11
116
21
-66
0
LINE
8
0
10
116
20
-66
11
98
21
-66
0
LINE
8
0
10
98
20
-66
11
98
21
-48
0
LINE
8
0
10
98
20
-29
11
116
21
-29
0
LINE
8
0
10
116
20
-29
11
116
21
-47
0
LINE
8
0
10
116
20
-47
11
98
21
-47
0
LINE
8
0
10
98
20
-47
11
98
21
-29
0
LINE
8
0
10
98
20
-10
11
116
21
-10
0
LINE
8
0
10
116
20
-10
11
116
21
-28
0
LINE
8
0
10
116
20
-28
11
98
21
-28
0
LINE
8
0
10
98
20
-28
11
98
21
-10
0
LINE
8
0
10
117
20
-88.5
11
135
21
-88.5
0
LINE
8
0
10
135
20
-88.5
11
135
21
-106.5
0
LINE
8
0
10
135
20
-106.5
11
117
21
-106.5
0
LINE
8
0
10
117
20
-106.5
11
117
21
-88.5
0
LINE
8
0
10
117
20
-69.5
11
135
21
-69.5
0
LINE
8
0
10
135
20
-69.5
11
135
21
-87.5
0
LINE
8
0
10
135
20
-87.5
11
117
21
-87.5
0
LINE
8
0
10
117
20
-87.5
11
117
21
-69.5
0
LINE
8
0
10
117
20
-50.5
11
135
21
-50.5
0
LINE
8
0
10
135
20
-50.5
11
135
21
-68.5
0
LINE
8
0
10
135
20
-68.5
11
117
21
-68.5
0
LINE
8
0
10
117
20
-68.5
11
117
21
-50.5
0
LINE
8
0
10
117
20
-31.5
11
135
21
-31.5
0
LINE
8
0
10
135
20
-31.5
11
135
21
-49.5
0
LINE
8
0
10
135
20
-49.5
11
117
21
-49.5
0
LINE
8
0
10
117
20
-49.5
11
117
21
-31.5
0
LINE
8
0
10
117
20
-12.5
11
135
21
-12.5
0
LINE
8
0
10
135
20
-12.5
11
135
21
-30.5
0
LINE
8
0
10
135
20
-30.5
11
117
21
-30.5
0
LINE
8
0
10
117
20
-30.5
11
117
21
-12.5
0
LINE
8
0
10
136
20
-91
11
154
21
-91
0
LINE
8
0
10
154
20
-91
11
154
21
-109
0
LINE
8
0
10
154
20
-109
11
136
21
-109
0
LINE
8
0
10
136
20
-109
11
136
21
-91
0
LINE
8
0
10
136
20
-72
11
154
21
-72
0
LINE
8
0
10
154
20
-72
11
154
21
-90
0
LINE
8
0
10
154
20
-90
11
136
21
-90
0
LINE
8
0
10
136
20
-90
11
136
21
-72
0
LINE
8
0
10
136
20
-53
11
154
21
-53
0
LINE
8
0
10
154
20
-53
11
154
21
-71
0
LINE
8
0
10
154
20
-71
11
136
21
-71
0
LINE
8
0
10
136
20
-71
11
136
21
-53
0
LINE
8
0
10
136
20
-34
11
154
21
-34
0
LINE
8
0
10
154
20
-34
11
154
21
-52
0
LINE
8
0
10
154
20
-52
11
136
21
-52
0
LINE
8
0
10
136
20
-52
11
136
21
-34
0
LINE
8
0
10
136
20
-15
11
154
21
-15
0
LINE
8
0
10
154
20
-15
11
154
21
-33
0
LINE
8
0
10
154
20
-33
11
136
21
-33
0
LINE
8
0
10
136
20
-33
11
136
21
-15
0
LINE
8
0
10
155
20
-96
11
173
21
-96
0
LINE
8
0
10
173
20
-96
11
173
21
-114
0
LINE
8
0
10
173
20
-114
11
155
21
-114
0
LINE
8
0
10
155
20
-114
11
155
21
-96
0
LINE
8
0
10
155
20
-77
11
173
21
-77
0
LINE
8
0
10
173
20
-77
11
173
21
-95
0
LINE
8
0
10
173
20
-95
11
155
21
-95
0
LINE
8
0
10
155
20
-95
11
155
21
-77
0
LINE
8
0
10
155
20
-58
11
173
21
-58
0
LINE
8
0
10
173
20
-58
11
173
21
-76
0
LINE
8
0
10
173
20
-76
11
155
21
-76
0
LINE
8
0
10
155
20
-76
11
155
21
-58
0
LINE
8
0
10
155
20
-39
11
173
21
-39
0
LINE
8
0
10
173
20
-39
11
173
21
-57
0
LINE
8
0
10
173
20
-57
11
155
21
-57
0
LINE
8
0
10
155
20
-57
11
155
21
-39
0
LINE
8
0
10
155
20
-20
11
173
21
-20
0
LINE
8
0
10
173
20
-20
11
173
21
-38
0
LINE
8
0
10
173
20
-38
11
155
21
-38
0
LINE
8
0
10
155
20
-38
11
155
21
-20
0
LINE
8
0
10
-11.9603344
20
-128.6467943
11
4.3532057
21
-121.0396656
0
LINE
8
0
10
4.3532057
20
-121.0396656
11
11.9603344
21
-137.3532057
0
LINE
8
0
10
11.9603344
20
-137.3532057
11
-4.3532057
21
-144.9603344
0
LINE
8
0
10
-4.3532057
20
-144.9603344
11
-11.9603344
21
-128.6467943
0
LINE
8
0
10
5.3048289
20
-120.5959164
11
21.618369
21
-112.9887877
0
LINE
8
0
10
21.618369
20
-112.9887877
11
29.2254977
21
-129.3023278
0
LINE
8
0
10
29.2254977
20
-129.3023278
11
12.9119576
21
-136.9094565
0
LINE
8
0
10
12.9119576
20
-136.9094565
11
5.3048289
21
-120.5959164
0
LINE
8
0
10
-3.7287873
20
-146.2994041
11
12.5847529
21
-138.6922754
0
LINE
8
0
10
12.5847529
20
-138.6922754
11
24.6610697
21
-164.5900205
0
LINE
8
0
10
24.6610697
20
-164.5900205
11
8.3475295
21
-172.1971492
0
LINE
8
0
10
8.3475295
20
-172.1971492
11
-3.7287873
21
-146.2994041
0
LINE
8
0
10
13.536376
20
-138.2485262
11
29.8499162
21
-130.6413975
0
LINE
8
0
10
29.8499162
20
-130.6413975
11
41.926233
21
-156.5391426
0
LINE
8
0
10
41.926233
20
-156.5391426
11
25.6126928
21
-164.1462713
0
LINE
8
0
10
25.6126928
20
-164.1462713
11
13.536376
21
-138.2485262
0
LINE
8
0
10
88
20
-110
11
106
21
-110
0
LINE
8
0
10
106
20
-110
11
106
21
-128
0
LINE
8
0
10
106
20
-128
11
88
21
-128
0
LINE
8
0
10
88
20
-128
11
88
21
-110
0
LINE
8
0
10
69
20
-130
11
87
21
-130
0
LINE
8
0
10
87
20
-130
11
87
21
-148
0
LINE
8
0
10
87
20
-148
11
69
21
-148
0
LINE
8
0
10
69
20
-148
11
69
21
-130
0
LINE
8
0
10
88.05
20
-129
11
106.05
21
-129
0
LINE
8
0
10
106.05
20
-129
11
106.05
21
-147
0
LINE
8
0
10
106.05
20
-147
11
88.05
21
-147
0
LINE
8
0
10
88.05
20
-147
11
88.05
21
-129
0
LINE
8
0
10
107.1
20
-130
11
125.1
21
-130
0
LINE
8
0
10
125.1
20
-130
11
125.1
21
-148
0
LINE
8
0
10
125.1
20
-148
11
107.1
21
-148
0
LINE
8
0
10
107.1
20
-148
11
107.1
21
-130
0
ENDSEC
0
EOF