0
SECTION
2
HEADER
9
$INSUNITS
70
4
0
ENDSEC
0
SECTION
2
TABLES
0
TABLE
2
LTYPE
0
LTYPE
72
65
70
64
2
CONTINUOUS
3
______
73
0
40
0
0
ENDTAB
0
TABLE
2
LAYER
0
ENDTAB
0
ENDSEC
0
SECTION
2
ENTITIES
0
LINE
8
0
10
40
20
-97.5544041
11
40
21
-14.5
0
LINE
8
0
10
59
20
-14.5
11
40
21
-14.5
0
LINE
8
0
10
67.7412264
20
-107
11
79
21
-107
0
LINE
8
0
10
79
20
-107
11
79
21
-104.6842105
0
LINE
8
0
10
78
20
-12
11
59
21
-12
0
LINE
8
0
10
59
20
-12
11
59
21
-14.5
0
LINE
8
0
10
80.4
20
-104.5
11
88
21
-104.5
0
LINE
8
0
10
106
20
-104.5
11
116
21
-104.5
0
LINE
8
0
10
78
20
-9.5
11
117
21
-9.5
0
LINE
8
0
10
78
20
-9.5
11
78
21
-12
0
LINE
8
0
10
117
20
-12
11
117
21
-9.5
0
LINE
8
0
10
116
20
-107
11
135
21
-107
0
LINE
8
0
10
116
20
-104.5
11
116
21
-107
0
LINE
8
0
10
136
20
-14.5
11
136
21
-12
0
LINE
8
0
10
136
20
-12
11
117
21
-12
0
LINE
8
0
10
135
20
-109.5
11
154
21
-109.5
0
LINE
8
0
10
135
20
-107
11
135
21
-109.5
0
LINE
8
0
10
155
20
-19.5
11
155
21
-14.5
0
LINE
8
0
10
155
20
-14.5
11
136
21
-14.5
0
LINE
8
0
10
154
20
-114.5
11
174
21
-114.5
0
LINE
8
0
10
174
20
-114.5
11
174
21
-19.5
0
LINE
8
0
10
154
20
-109.5
11
154
21
-114.5
0
LINE
8
0
10
174
20
-19.5
11
155
21
-19.5
0
LINE
8
0
10
-5.0482044
20
-145.8361066
11
-4.9575736
21
-145.7938448
0
LINE
8
0
10
-13.0779514
20
-128.6162586
11
22.3133677
21
-112.1130155
0
LINE
8
0
10
-13.0779514
20
-128.6162586
11
-5.0482044
21
-145.8361066
0
LINE
8
0
10
22.9427468
20
-113.4627232
11
22.3133677
21
-112.1130155
0
LINE
8
0
10
5.4179368
20
-168.2808189
11
40.8092559
21
-151.7775758
0
LINE
8
0
10
-2.6118102
20
-151.0609709
11
-2.5211794
21
-151.0187091
0
LINE
8
0
10
-2.6118102
20
-151.0609709
11
5.4179368
21
-168.2808189
0
LINE
8
0
10
40.8092559
20
-151.7775758
11
32.8532437
21
-134.7158526
0
LINE
8
0
10
87
20
-128.5
11
87.05
21
-128.5
0
LINE
8
0
10
107
20
-128.5
11
107
21
-109.5
0
LINE
8
0
10
107
20
-109.5
11
106
21
-109.5
0
LINE
8
0
10
88
20
-109.5
11
87
21
-109.5
0
LINE
8
0
10
87
20
-109.5
11
87
21
-128.5
0
LINE
8
0
10
68
20
-148.5
11
88
21
-148.5
0
LINE
8
0
10
88
20
-148.5
11
88
21
-147.5
0
LINE
8
0
10
87.05
20
-129.5
11
68
21
-129.5
0
LINE
8
0
10
68
20
-129.5
11
68
21
-148.5
0
LINE
8
0
10
88
20
-147.5
11
106.1
21
-147.5
0
LINE
8
0
10
107.05
20
-129.5
11
107.05
21
-128.5
0
LINE
8
0
10
107.05
20
-128.5
11
107
21
-128.5
0
LINE
8
0
10
87.05
20
-128.5
11
87.05
21
-129.5
0
LINE
8
0
10
106.1
20
-148.5
11
126.1
21
-148.5
0
LINE
8
0
10
126.1
20
-148.5
11
126.1
21
-129.5
0
LINE
8
0
10
126.1
20
-129.5
11
107.05
21
-129.5
0
LINE
8
0
10
106.1
20
-147.5
11
106.1
21
-148.5
0
LINE
8
0
10
40
20
-97.5544041
11
22.9427468
21
-113.4627232
0
LINE
8
0
10
-4.9575736
20
-145.7938448
11
-2.5211794
21
-151.0187091
0
LINE
8
0
10
32.8532437
20
-134.7158526
11
67.7412264
21
-107
0
LINE
8
0
10
79
20
-104.6842105
11
80.4
21
-104.5
0
LINE
8
0
10
88
20
-104.5
11
88
21
-109.5
0
LINE
8
0
10
106
20
-109.5
11
106
21
-104.5
0
ENDSEC
0
EOF